<?xml version="1.0" encoding="UTF-8"?>
<svg id="Capa_1" xmlns="http://www.w3.org/2000/svg" xmlns:xlink="http://www.w3.org/1999/xlink" viewBox="0 0 334.57 490.84">
  <defs>
    <style>
      .cls-1 {
        fill: url(#Espectro_);
      }

      .cls-2 {
        fill: #fff;
      }

      .cls-3 {
        fill: #010101;
      }

      .cls-4 {
        fill: url(#Espectro_-2);
      }
    </style>
    <linearGradient id="Espectro_" data-name="Espectro " x1="217.93" y1="256.25" x2="217.93" y2="45.1" gradientUnits="userSpaceOnUse">
      <stop offset="0" stop-color="#09a0db"/>
      <stop offset=".2" stop-color="#352c81"/>
      <stop offset=".4" stop-color="#e40a7d"/>
      <stop offset=".6" stop-color="#e32222"/>
      <stop offset=".8" stop-color="#ffe90b"/>
      <stop offset="1" stop-color="#009548"/>
    </linearGradient>
    <linearGradient id="Espectro_-2" data-name="Espectro " x1="87.77" y1="256.62" x2="87.77" y2="45.5" xlink:href="#Espectro_"/>
  </defs>
  <g>
    <path class="cls-2" d="M150.11,426.86c19.94,0,39.89-.1,59.83.04,10.3.07,15.39,7.31,11.1,15.55-2.57,4.94-7.12,6.13-12.36,6.11-21.98-.08-43.95-.03-65.93-.03-17.7,0-35.42.29-53.11-.23-3.74-.11-8.37-2.34-10.77-5.15-1.82-2.12-1.74-7.05-.72-10.13,1.55-4.66,6.06-6.17,10.92-6.17,20.35.02,40.7,0,61.05,0Z"/>
    <path d="M114.96,451.27c-8.44,0-16.96-.06-25.4-.31-4.47-.13-9.82-2.69-12.72-6.08-2.86-3.34-2.27-9.57-1.23-12.71,1.71-5.16,6.48-8,13.43-8h.02c14.82.02,29.64.01,44.46,0h16.58c5.82,0,11.65,0,17.47-.02,13.89-.02,28.25-.04,42.37.06,6.19.04,11.17,2.43,13.65,6.56,2.22,3.69,2.15,8.39-.2,12.9-3.54,6.8-10.11,7.56-14.74,7.55-16.06-.06-32.39-.05-48.18-.04h-17.74c-4.64,0-9.28.03-13.93.05-4.57.02-9.2.04-13.86.04ZM89.04,429.52c-4.59,0-7.4,1.46-8.36,4.34-.94,2.83-.67,6.52.21,7.55,1.92,2.24,5.87,4.13,8.82,4.21,13,.38,26.26.33,39.08.27,4.65-.02,9.3-.04,13.95-.04h17.73c15.8-.02,32.14-.03,48.21.03,5.34-.02,8.24-1.33,9.99-4.67,1.49-2.86,1.62-5.59.36-7.68-1.5-2.49-4.82-3.94-9.11-3.97-14.11-.1-28.45-.08-42.33-.06-5.83,0-11.65.02-17.48.02h-16.58c-14.82,0-29.65,0-44.47,0h-.02Z"/>
  </g>
  <g>
    <path class="cls-2" d="M149.47,413.26c-20.35,0-40.7.02-61.04-.02-5.73-.01-9.8-2.56-11.22-8.33-1.29-5.24.83-9.31,5.4-11.75,2.04-1.09,4.7-1.41,7.07-1.41,39.88-.08,79.76-.1,119.65-.03,8.73.01,13.26,3.76,13.03,10.24-.26,7.34-4.96,11.27-13.67,11.29-19.74.03-39.47,0-59.21,0Z"/>
    <path d="M184.43,415.94c-6.34,0-12.68,0-19.02,0h-15.94s-18.09,0-18.09,0c-14.32,0-28.64,0-42.96-.02-7.27-.01-12.17-3.69-13.81-10.37-1.54-6.27.91-11.64,6.74-14.74,2.14-1.14,4.94-1.72,8.32-1.72,40.99-.08,81.25-.09,119.66-.03,5.66,0,9.9,1.44,12.62,4.26,2.14,2.22,3.2,5.24,3.08,8.74-.31,8.8-6.26,13.85-16.33,13.87-8.09.01-16.17.02-24.26.02ZM149.47,410.59h15.94c14.42.01,28.84.02,43.27,0,10.7-.02,10.93-6.56,11-8.71.07-2.08-.45-3.67-1.58-4.85-1.65-1.71-4.69-2.62-8.78-2.63-38.4-.06-78.65-.05-119.63.03-2.47,0-4.48.38-5.82,1.1-3.65,1.94-5.01,4.88-4.06,8.75,1.06,4.29,3.8,6.29,8.63,6.3,14.32.03,28.63.02,42.95.02h18.09Z"/>
  </g>
  <g>
    <path class="cls-2" d="M100.15,463.52h99.55c-3.1,10.28-12.69,17.85-23.59,18.01-17.45.26-34.91.27-52.36,0-11.21-.18-19.94-7.1-23.6-18.01Z"/>
    <path d="M149.78,484.41c-8.84,0-17.55-.07-26.07-.21-12.24-.2-21.99-7.61-26.09-19.83l-1.18-3.52h106.86l-1.04,3.44c-3.48,11.55-14.22,19.74-26.11,19.92-8.87.13-17.68.2-26.37.2ZM104.13,466.19c3.88,7.86,11.01,12.53,19.66,12.67,16.83.27,34.42.27,52.28,0,8.36-.12,16.02-5.18,19.72-12.67h-91.66Z"/>
  </g>
  <g>
    <g>
      <path class="cls-2" d="M327.17,208.78c-7.9-18.09-15.92-36.12-23.71-54.26-1.15-2.68-1.71-5.78-1.83-8.72-.52-12.5.23-25.13-1.31-37.49-6.05-48.52-54.15-85.98-101.16-97.55C164.13,2.14,130.29-.03,96.87,12.53,31.69,37.02-2.07,101.13,8.94,169.99c5.25,32.84,18.06,62.55,36.92,89.81,18.05,26.08,28.13,54.96,29.66,86.67.48,10.01.08,20.06.08,30.43h149.22c0-18.67-.04-36.72.01-54.77.05-14.94,9.3-24.26,24.11-24.35,7.79-.05,15.59.01,23.38-.02,12.31-.05,33.45-5.85,33.52-18.13.07-13.31.02-26.61.02-39.92,0-12.26,1.09-13.56,13-15.6,9.54-1.63,12.19-6.46,8.31-15.32ZM129.86,270.27c-10.88,3.4-20.02-1.39-26.65-14.2-15.7,1.92-26.41-5.49-30.38-20.39-.44-1.66-2.48-3.64-4.15-4.1-20.38-5.55-31.18-23.63-25.91-44.37.88-3.45.28-5.46-2.03-8-15.31-16.81-14.96-41.01.44-57.91,1.23-1.35,2.14-4.11,1.66-5.76-6.4-21.85,7.64-43.07,26.68-45.86,1.22-.18,2.83-1.74,3.2-2.98,4.94-16.37,13.67-22.61,30.25-21.53,2.32-3.14,4.16-6.58,6.86-9.1,5.84-5.44,12.87-7.21,20.57-4.47,8.23,2.92,12.97,8.97,14.53,17.48.41,2.22.37,4.54.37,6.82.02,63.27.03,126.55,0,189.82,0,12.8-5.52,21.43-15.46,24.54ZM262,179.76c-1.25,1.42-1.56,4.47-1.09,6.48,2.99,12.85,1.12,24.54-7.59,34.73-4.85,5.66-11.04,9.08-18.36,10.72-1.59.36-3.68,1.98-4.11,3.44-4.7,15.89-13.76,22.4-30.72,21.28-4.23,9.54-11.05,15.5-21.64,14.73-9.6-.71-16.13-6.34-19.05-15.55-.95-3-1.12-6.35-1.13-9.54-.06-63.84-.07-127.68-.03-191.52.01-15.56,9.62-25.84,23.19-24.93,9.49.64,14.94,6.6,17.81,13.07,7.31,1.93,13.75,2.74,19.37,5.34,6.66,3.08,10.07,9.41,12.02,16.52.48,1.74,2.24,3.97,3.84,4.41,20.98,5.81,31.57,23.33,26.34,44.47-.75,3.03-.72,5.07,1.53,7.62,15.91,18.09,15.55,40.64-.39,58.75Z"/>
      <path d="M228.56,380.63H71.86v-3.74c0-3.29.04-6.56.08-9.79.09-7.06.17-13.72-.15-20.45-1.47-30.54-11.23-59.05-29-84.72-19.79-28.58-32.42-59.32-37.54-91.34C-6.27,98.58,30.02,33.66,95.55,9.03c30.29-11.38,63.5-11.99,104.51-1.9,24.81,6.1,48.8,18.81,67.56,35.77,20.89,18.89,33.48,41.35,36.42,64.94,1.02,8.16,1.06,16.47,1.1,24.5.02,4.38.05,8.9.23,13.3.12,2.78.64,5.34,1.53,7.4,5.2,12.11,10.59,24.39,15.81,36.26,2.63,5.99,5.27,11.98,7.89,17.98,2.44,5.58,2.68,10.04.75,13.63-1.94,3.6-5.82,5.85-11.86,6.88q-9.89,1.69-9.89,11.91c0,4.18,0,8.36,0,12.53.01,8.98.02,18.26-.03,27.4-.08,14.81-22.27,21.79-37.24,21.85-3.5.01-7.01,0-10.51,0-4.29,0-8.58-.01-12.86.01-12.73.08-20.36,7.79-20.4,20.63-.04,12.53-.03,24.82-.02,37.82,0,5.6,0,11.24,0,16.94v3.74ZM79.35,373.15h141.73c0-4.43,0-8.82,0-13.19,0-13.01-.02-25.3.02-37.85.05-16.95,10.98-27.97,27.83-28.08,4.31-.03,8.62-.02,12.92-.01,3.49,0,6.98.01,10.47,0,12.12-.05,29.74-5.68,29.79-14.41.05-9.11.04-18.39.03-27.35,0-4.18,0-8.36,0-12.54,0-14.06,2.41-16.94,16.11-19.28,2.45-.42,5.58-1.29,6.53-3.05.95-1.76-.03-4.82-1.02-7.08h0c-2.62-5.99-5.25-11.98-7.88-17.96-5.22-11.89-10.62-24.18-15.84-36.32-1.57-3.65-2.02-7.47-2.13-10.04-.19-4.54-.21-9.13-.24-13.57-.04-7.81-.08-15.89-1.04-23.61-5.92-47.54-53.96-83.46-98.34-94.38-39.48-9.71-71.28-9.19-100.09,1.64C36.08,39.37,1.7,101.01,12.63,169.4c4.94,30.91,17.16,60.61,36.3,88.27,18.58,26.84,28.78,56.65,30.32,88.62.33,6.96.25,14.05.16,20.9-.03,1.98-.05,3.96-.07,5.96ZM123.34,275.06c-8.79,0-16.48-5.15-22.23-15.04-16.08,1.03-27.63-7.38-31.9-23.38-.16-.42-1.07-1.3-1.53-1.46-22.55-6.14-34.29-26.25-28.53-48.89.55-2.15.36-2.88-1.17-4.56-16.49-18.1-16.3-44.57.44-62.94.45-.49.87-1.8.81-2.28-3.37-11.49-1.66-23.85,4.73-33.82,5.81-9.06,14.81-15.12,24.72-16.66.17-.12.39-.35.49-.5,5.26-17.36,14.87-24.7,31.93-24.18.28-.41.56-.83.85-1.26,1.55-2.32,3.16-4.72,5.33-6.74,7.08-6.59,15.5-8.41,24.38-5.26,9.26,3.29,15.12,10.32,16.96,20.32.44,2.4.44,4.74.44,7v.49c.02,63.27.03,126.55,0,189.82,0,14.48-6.43,24.46-18.09,28.11h0c-2.62.82-5.17,1.22-7.63,1.22ZM105.34,252.04l1.19,2.31c5.78,11.17,13.04,15.21,22.21,12.35h0c10.6-3.31,12.83-13.23,12.84-20.97.02-63.27.01-126.55,0-189.82v-.5c0-2.02,0-3.92-.31-5.65-1.36-7.43-5.32-12.21-12.11-14.63-6.16-2.19-11.8-.95-16.77,3.68-1.53,1.43-2.83,3.37-4.21,5.43-.69,1.03-1.4,2.1-2.18,3.15l-1.21,1.64-2.04-.13c-14.84-.96-21.99,4.16-26.43,18.88-.71,2.36-3.3,5.17-6.24,5.6-7.89,1.16-15.1,6.02-19.8,13.34-5.22,8.14-6.62,18.26-3.83,27.77.92,3.13-.54,7.2-2.48,9.33-14.09,15.45-14.27,37.68-.44,52.87,3.22,3.53,4.06,6.85,2.89,11.44-4.76,18.74,4.58,34.75,23.26,39.84,2.96.81,6,3.83,6.78,6.74,3.52,13.22,12.63,19.32,26.31,17.64l2.58-.32ZM180.26,274.94c-.7,0-1.38-.03-2.04-.08-10.95-.81-18.88-7.25-22.35-18.15-1.14-3.59-1.3-7.41-1.3-10.67-.06-63.76-.07-128.2-.03-191.53,0-9.19,3.09-17.13,8.69-22.36,4.92-4.6,11.31-6.78,18.5-6.3,8.84.59,15.94,5.4,20.18,13.61,1.68.41,3.33.78,4.93,1.14,4.73,1.06,9.2,2.06,13.39,3.99,6.82,3.15,11.42,9.34,14.06,18.92.17.61.92,1.58,1.34,1.83,22.93,6.4,34.53,26.05,28.87,48.94-.57,2.29-.46,2.93.71,4.25,17.15,19.51,17.01,43.9-.37,63.67-.3.46-.54,2.05-.27,3.19,3.42,14.71.6,27.5-8.39,38.01-5.17,6.05-12.03,10.06-20.38,11.94-.38.09-1.14.64-1.39.99-5.03,16.86-14.94,24.32-31.96,23.93-6.12,11.83-15.01,14.68-22.18,14.68ZM179.83,33.27c-4.48,0-8.43,1.49-11.49,4.35-4.07,3.8-6.31,9.8-6.31,16.9-.04,63.33-.03,127.76.03,191.52,0,2.69.12,5.79.95,8.42,2.54,8.02,7.85,12.37,15.76,12.96,8.08.6,13.95-3.5,17.95-12.51l1.06-2.39,2.61.17c15.09,1,22.63-4.23,26.89-18.61.89-3,4.2-5.42,6.88-6.02,6.84-1.53,12.18-4.64,16.33-9.5,7.46-8.72,9.68-19.01,6.79-31.45-.7-2.99-.26-7.32,1.92-9.8h0c14.72-16.73,14.87-37.34.39-53.81-3.28-3.73-3.31-7.09-2.35-10.99,4.7-18.99-4.61-34.68-23.71-39.97-3.06-.85-5.68-4.24-6.45-7.02-2.05-7.43-5.22-11.92-9.99-14.12-3.46-1.6-7.37-2.47-11.89-3.48-2.2-.49-4.47-1-6.86-1.63l-1.73-.46-.73-1.64c-3.01-6.76-7.94-10.41-14.65-10.86-.47-.03-.94-.05-1.4-.05ZM234.36,236.38h0s0,0,0,0ZM264.81,182.23h0s0,0,0,0Z"/>
    </g>
    <path class="cls-3" d="M260.87,113.39c5.23-21.13-5.36-38.66-26.34-44.47-1.6-.44-3.36-2.68-3.84-4.41-1.96-7.1-5.36-13.44-12.02-16.52-5.62-2.59-12.06-3.41-19.37-5.34-2.88-6.46-8.32-12.43-17.81-13.07-13.57-.91-23.18,9.37-23.19,24.93-.04,63.84-.03,127.68.03,191.52,0,3.19.17,6.54,1.13,9.54,2.92,9.21,9.46,14.85,19.05,15.55,10.59.78,17.41-5.18,21.64-14.73,16.95,1.11,26.01-5.39,30.72-21.28.43-1.46,2.52-3.08,4.11-3.44,7.31-1.64,13.51-5.05,18.36-10.72,8.71-10.19,10.58-21.88,7.59-34.73-.47-2.01-.16-5.06,1.09-6.48,15.94-18.11,16.3-40.66.39-58.75-2.25-2.55-2.28-4.59-1.53-7.62ZM252.03,171.21c-3.61-3.22-7.29-6.46-10.92-9.75-2.71-2.45-5.61-3.7-8.34-.36-2.55,3.13-2.94,6.63.26,9.7,3.02,2.89,6.42,5.4,9.27,8.43,4.74,5.03,8.76,10.53,8.85,17.93.15,12.16-10.3,21.04-22.28,18.87-8.23-1.49-10.58,1.41-9.44,9.64.55,3.98-.19,8.82-2.12,12.3-3.04,5.49-9.63,5.43-14.52.39-2.65-2.74-5.8-4.94-8.86-2.81-2.11,1.47-2.88,5.26-3.64,8.17-.66,2.52.26,5.63-.86,7.79-1.12,2.15-3.81,4.58-5.98,4.75-1.74.14-4.3-2.61-5.44-4.67-1.01-1.81-.71-4.42-.72-6.68-.06-10.26-.03-20.53-.02-30.79,0-7.55,6.24-15.19,13.61-16.44,3.83-.65,7.28-1.71,7.35-6.33.06-3.93-4.11-6.92-8.99-6.59-2.05.14-4.11.65-6.09,1.26-1.94.59-3.79,1.51-6.23,2.51v-51.72c5.34,2.47,9.25,5.9,11.65,11,1.87,3.97,4.48,6.44,8.91,3.83,4.1-2.42,4.1-5.88,1.73-9.76-4.58-7.49-10.42-13.41-18.72-16.83-1.66-.68-3.75-2.94-3.8-4.53-.34-10.24-.18-20.49-.18-31.9,1.95,1.63,3.01,3.17,4.36,3.49,2.49.6,6.39,1.6,7.45.42,1.53-1.7,2.34-6.23,1.16-7.75-3.18-4.08-7.72-7.06-11.45-10.76-1.51-1.5-3.11-3.65-3.27-5.63-.45-5.28-.25-10.63-.1-15.95.12-4.07,2.04-7.22,6.38-7.32,4.5-.1,6.14,3.12,6.23,7.24.06,2.66-.49,5.48.25,7.93.69,2.29,2.32,5.27,4.24,5.95,1.93.68,5.45-.38,7.01-1.94,3.87-3.86,7.65-6.38,13.02-3.45,4.66,2.54,6.75,9.02,5.09,15.08-2.12,7.71.32,10.5,8.41,9.61,10.4-1.14,17.85,2.96,21.06,11.59,3.33,8.96.14,17.95-8.45,23.59-2.06,1.35-4.91,2.02-6.21,3.84-1.41,1.96-2.62,5.55-1.71,7.26.88,1.68,4.6,2.68,6.97,2.52,2.45-.17,5.03-1.78,7.11-3.35,4.44-3.34,7.95-1.4,10.99,1.74,9.54,9.85,8,29.58-3.04,38.49Z"/>
    <path class="cls-3" d="M144.94,49.09c-1.56-8.51-6.3-14.55-14.53-17.48-7.7-2.74-14.73-.97-20.57,4.47-2.7,2.52-4.54,5.96-6.86,9.1-16.59-1.07-25.32,5.16-30.25,21.53-.37,1.24-1.99,2.8-3.2,2.98-19.04,2.79-33.08,24.01-26.68,45.86.48,1.65-.42,4.41-1.66,5.76-15.4,16.89-15.76,41.09-.44,57.91,2.31,2.54,2.9,4.55,2.03,8-5.27,20.74,5.53,38.82,25.91,44.37,1.67.46,3.71,2.44,4.15,4.1,3.97,14.9,14.68,22.31,30.38,20.39,6.63,12.81,15.77,17.6,26.65,14.2,9.95-3.11,15.46-11.74,15.46-24.54.02-63.27.01-126.55,0-189.82,0-2.28.03-4.6-.37-6.82ZM127.06,74.2c-3.69,3.17-7.63,6.12-10.91,9.68-2.81,3.06-1.73,6.46,1.36,8.92,3.18,2.53,6.09,1.32,8.49-1.36.96-1.07,1.5-2.51,2.24-3.79.57.38,1.13.75,1.7,1.13,0,10.56.15,21.12-.19,31.67-.04,1.32-2.45,3.05-4.11,3.73-8.06,3.31-14.29,8.59-18.35,16.29-2.07,3.93-2.46,7.67,2.23,10.18,4.62,2.47,6.8-.51,9.16-3.84,2.6-3.67,5.66-7.02,8.51-10.5.49.35.98.7,1.48,1.05v50.84c-4.24-1.21-8.15-2.65-12.19-3.38-4.29-.78-7.61.87-8.21,5.65-.59,4.65,2.23,6.24,6.37,6.94,7.86,1.33,14.33,9.22,14.33,17.07,0,10.27,0,20.53,0,30.8,0,7.67-2.16,11.43-6.49,11.34-4.15-.08-6.16-3.64-6.21-11-.01-1.71.4-3.66-.28-5.06-1-2.05-2.51-4.67-4.37-5.27-1.88-.61-5.22.23-6.6,1.68-3.74,3.93-7.46,6.63-12.92,3.91-4.78-2.38-6.86-8.3-5.49-14.88,1.84-8.82-.4-11.15-9.3-9.67-13.07,2.17-24.18-10.31-20.69-23.4,1.92-7.18,6.14-12.94,11.74-17.75,2.01-1.73,4.15-3.43,5.72-5.52,2.41-3.22,1.93-7.04-1.22-9.02-1.66-1.05-5.48-.38-7.35.91-4.02,2.78-7.41,6.47-11.03,9.75-12.06-9.56-12.62-30.53-1.11-40.51,1.1-.96,3.51-1.31,4.92-.82,2.84.97,5.45,2.63,8.08,4.15,3.54,2.04,6.94,1.03,8.11-2.2.76-2.1-.73-5.56-2.21-7.74-1.14-1.67-3.88-2.21-5.83-3.38-7.91-4.74-11.44-14.2-8.49-22.62,3.19-9.08,10.72-13.81,20.39-12.79,10.33,1.09,11.59-.3,9.76-10.79-.99-5.67,1.36-11.64,5.69-13.88,5.19-2.68,8.79-.02,12.63,3.38,1.81,1.6,5.53,2.79,7.48,1.98,1.94-.8,3.25-4.21,3.9-6.72.74-2.88-.1-6.19.77-9,.62-1.99,2.74-4.53,4.53-4.84,1.74-.31,5.48,1.69,5.67,3.05,1.06,7.59,1.43,15.3,1.69,22.98.03.84-2.27,1.69-3.39,2.65Z"/>
    <path class="cls-1" d="M244.07,130.98c-2.08,1.57-4.66,3.17-7.11,3.35-2.37.17-6.09-.84-6.97-2.52-.91-1.71.31-5.3,1.71-7.26,1.31-1.83,4.16-2.49,6.21-3.84,8.59-5.64,11.78-14.63,8.45-23.59-3.21-8.63-10.66-12.73-21.06-11.59-8.1.89-10.53-1.9-8.41-9.61,1.66-6.06-.43-12.53-5.09-15.08-5.37-2.93-9.16-.41-13.02,3.45-1.56,1.56-5.08,2.62-7.01,1.94-1.92-.68-3.56-3.66-4.24-5.95-.73-2.45-.19-5.27-.25-7.93-.09-4.12-1.72-7.33-6.23-7.24-4.34.09-6.26,3.25-6.38,7.32-.15,5.32-.35,10.67.1,15.95.17,1.97,1.76,4.13,3.27,5.63,3.73,3.7,8.27,6.68,11.45,10.76,1.19,1.52.37,6.05-1.16,7.75-1.06,1.18-4.96.19-7.45-.42-1.35-.33-2.41-1.87-4.36-3.49,0,11.41-.17,21.66.18,31.9.05,1.59,2.14,3.85,3.8,4.53,8.3,3.42,14.15,9.34,18.72,16.83,2.37,3.87,2.37,7.33-1.73,9.76-4.42,2.61-7.04.15-8.91-3.83-2.4-5.1-6.31-8.53-11.65-11v51.72c2.44-1,4.28-1.92,6.23-2.51,1.98-.6,4.04-1.12,6.09-1.26,4.87-.33,9.05,2.66,8.99,6.59-.07,4.62-3.52,5.68-7.35,6.33-7.37,1.25-13.6,8.89-13.61,16.44,0,10.26-.04,20.53.02,30.79.01,2.26-.29,4.88.72,6.68,1.14,2.05,3.7,4.8,5.44,4.67,2.17-.17,4.86-2.6,5.98-4.75,1.12-2.16.2-5.27.86-7.79.76-2.91,1.53-6.7,3.64-8.17,3.05-2.12,6.2.07,8.86,2.81,4.88,5.05,11.48,5.1,14.52-.39,1.92-3.48,2.67-8.32,2.12-12.3-1.14-8.23,1.2-11.13,9.44-9.64,11.98,2.17,22.44-6.71,22.28-18.87-.09-7.4-4.12-12.9-8.85-17.93-2.85-3.03-6.25-5.54-9.27-8.43-3.21-3.07-2.82-6.57-.26-9.7,2.72-3.34,5.63-2.09,8.34.36,3.63,3.29,7.3,6.52,10.92,9.75,11.04-8.91,12.58-28.64,3.04-38.49-3.04-3.14-6.55-5.08-10.99-1.74ZM222.83,182.41c-.91,8.88-2.55,17.78-10.66,23.71-4.95,3.62-9.47,2.11-10.78-3.58-.36-1.57.01-4.3,1.07-5.04,6.44-4.48,7.19-11.11,7.69-18,.3-4.17,2.54-6.88,6.88-6.62,4.43.27,6.02,3.33,5.8,7.51-.03.56,0,1.13,0,2.02ZM215.3,126.91c-.97-.82-3.92-2.14-4.85-4.32-2.88-6.74-8.31-8.85-14.78-9.83-2.21-.34-4.96-.41-6.38-1.74-1.51-1.41-2.69-4.41-2.25-6.31.44-1.87,2.86-4.24,4.79-4.65,10.9-2.35,27.88,8.21,30.81,18.74,1.33,4.77-1.02,8.22-7.33,8.12Z"/>
    <path class="cls-4" d="M123.1,45.53c-1.8.32-3.92,2.85-4.53,4.84-.87,2.81-.03,6.12-.77,9-.64,2.51-1.96,5.92-3.9,6.72-1.95.81-5.67-.38-7.48-1.98-3.84-3.39-7.44-6.06-12.63-3.38-4.33,2.24-6.68,8.2-5.69,13.88,1.83,10.48.57,11.88-9.76,10.79-9.66-1.02-17.2,3.7-20.39,12.79-2.95,8.41.58,17.88,8.49,22.62,1.95,1.17,4.69,1.71,5.83,3.38,1.48,2.17,2.97,5.64,2.21,7.74-1.17,3.23-4.57,4.24-8.11,2.2-2.62-1.52-5.24-3.18-8.08-4.15-1.42-.48-3.82-.13-4.92.82-11.51,9.97-10.95,30.94,1.11,40.51,3.62-3.28,7.01-6.97,11.03-9.75,1.87-1.3,5.69-1.97,7.35-.91,3.14,1.99,3.63,5.8,1.22,9.02-1.57,2.1-3.71,3.79-5.72,5.52-5.6,4.82-9.83,10.57-11.74,17.75-3.49,13.09,7.62,25.58,20.69,23.4,8.9-1.48,11.13.85,9.3,9.67-1.37,6.58.71,12.5,5.49,14.88,5.47,2.72,9.19.02,12.92-3.91,1.38-1.45,4.71-2.29,6.6-1.68,1.86.6,3.37,3.22,4.37,5.27.68,1.4.27,3.36.28,5.06.05,7.35,2.05,10.92,6.21,11,4.33.08,6.49-3.67,6.49-11.34,0-10.27,0-20.53,0-30.8,0-7.85-6.47-15.74-14.33-17.07-4.14-.7-6.96-2.29-6.37-6.94.61-4.78,3.92-6.43,8.21-5.65,4.04.73,7.95,2.17,12.19,3.38v-50.84c-.49-.35-.98-.7-1.48-1.05-2.86,3.49-5.92,6.83-8.51,10.5-2.36,3.34-4.54,6.31-9.16,3.84-4.7-2.51-4.31-6.25-2.23-10.18,4.07-7.71,10.29-12.98,18.35-16.29,1.66-.68,4.07-2.42,4.11-3.73.34-10.55.19-21.11.19-31.67-.57-.38-1.13-.75-1.7-1.13-.73,1.27-1.28,2.71-2.24,3.79-2.4,2.68-5.31,3.89-8.49,1.36-3.1-2.47-4.18-5.86-1.36-8.92,3.27-3.56,7.22-6.51,10.91-9.68,1.12-.96,3.42-1.81,3.39-2.65-.25-7.68-.62-15.38-1.69-22.98-.19-1.36-3.92-3.36-5.67-3.05ZM100.64,204.66c-1.45,1.54-5.26,2.45-7.21,1.63-7.75-3.27-10.62-10.38-12.02-18.09-.6-3.33-1.1-6.87-.6-10.16.33-2.2,2.51-4.11,3.87-6.15.83-.02,1.66-.03,2.5-.05,1.75,2.28,4.7,4.41,5.01,6.88.91,7.27,1.54,14.17,8.15,19.12,1.25.93,1.45,5.61.3,6.82ZM115.17,106.78c.13,3.76-2,6.07-5.81,6.42-8.35.76-15.57,2.98-19.02,11.87-.62,1.61-3.53,2.32-4.37,2.84-5.75-.17-8.73-4.03-6.87-8.49,1.77-4.24,4.38-8.49,7.68-11.63,5.89-5.62,13.74-7,21.64-7.18,3.91-.09,6.6,2.07,6.74,6.17Z"/>
  </g>
</svg>